<svg xmlns="http://www.w3.org/2000/svg" viewBox="0 0 512 512"><defs><linearGradient id="b" x1="0" y1="0" x2="1" y2="1"><stop offset="0" stop-color="#6e4314"/><stop offset=".18" stop-color="#c98b31"/><stop offset=".4" stop-color="#f1d083"/><stop offset=".58" stop-color="#ae7022"/><stop offset=".78" stop-color="#e2b35c"/><stop offset="1" stop-color="#684012"/></linearGradient><linearGradient id="steel" x1="0" x2="1"><stop stop-color="#7b838c"/><stop offset=".5" stop-color="#fff"/><stop offset="1" stop-color="#737b84"/></linearGradient><filter id="sh"><feDropShadow dx="0" dy="18" stdDeviation="18" flood-color="#000" flood-opacity=".2"/></filter></defs><g filter="url(#sh)"><rect x="96" y="182" width="320" height="148" rx="44" fill="url(#b)" stroke="#68431a" stroke-width="5"/><rect x="52" y="211" width="74" height="90" rx="18" fill="url(#b)" stroke="#68431a" stroke-width="5"/><rect x="386" y="211" width="74" height="90" rx="18" fill="url(#b)" stroke="#68431a" stroke-width="5"/><path d="M63 224h52M63 239h52M63 254h52M63 269h52M63 284h52M397 224h52M397 239h52M397 254h52M397 269h52M397 284h52" stroke="#f5d99a" stroke-width="4" opacity=".72"/><circle cx="256" cy="256" r="62" fill="#9b6820" stroke="#68431a" stroke-width="5"/><path d="M217 220l84 36-84 36z" fill="url(#steel)" stroke="#707780" stroke-width="4"/><path d="M302 256h49" stroke="#f8fafc" stroke-width="10" stroke-linecap="round" opacity=".8"/><path d="M132 203c72-16 176-16 248 0" stroke="#fff" stroke-width="9" opacity=".24" fill="none"/></g></svg>